#!OML:ASF X:\für Bonn\!DataBase\2005_08_11_Bastian_Final\c3d\Bastian.ASF
:FULLY-SPECIFIED
:DEGREES
241
root 9.52136 16.6165 -3.63341 187.76 80.7456 -166.46
lowerback 38.2133 -3.87347 5.8504
upperback 18.0198 0.45711 4.32288
thorax 1.06722 1.60707 1.40317
lowerneck -8.80677 -9.39041 -3.30209
upperneck -17.5155 -10.7449 11.6515
head -2.94312 -5.34202 4.01756
rclavicle 1.74931e-014 5.48646e-014
rhumerus -9.03597 37.7154 -71.1653
rradius 34.9602
rwrist -5.87083
rhand -19.5847 2.59944
rfingers 7.12502
rthumb 6.74072 -27.2733
lclavicle 1.74931e-014 5.48646e-014
lhumerus -1.00592 -25.7014 82.6031
lradius 41.1916
lwrist 19.528
lhand -12.7034 -10.1018
lfingers 7.12502
lthumb 13.3791 19.4486
rfemur -25.8969 -1.48113 23.0911
rtibia 52.6097
rfoot -13.3291 -6.49657
rtoes -2.82793
lfemur -12.8754 4.73707 -18.8898
ltibia 49.4687
lfoot -22.9486 -4.83228
ltoes -4.9418
242
root 9.57921 16.6867 -3.62048 187.755 80.6291 -166.583
lowerback 37.2714 -3.80311 5.80355
upperback 17.906 0.362014 4.29181
thorax 1.23104 1.53415 1.41498
lowerneck -8.74597 -9.37329 -3.30808
upperneck -17.1962 -10.7705 11.5034
head -2.86465 -5.35035 3.9641
rclavicle 3.49861e-014 -1.11319e-014
rhumerus -10.1512 37.5869 -72.1213
rradius 34.9062
rwrist -5.96125
rhand -19.4117 2.54359
rfingers 7.12502
rthumb 6.9077 -27.3237
lclavicle 3.49861e-014 -1.11319e-014
lhumerus -1.21718 -25.7382 82.7273
lradius 40.974
lwrist 19.575
lhand -12.6417 -10.094
lfingers 7.12502
lthumb 13.4385 19.4525
rfemur -25.1984 -1.52759 23.1608
rtibia 51.5387
rfoot -13.1177 -6.52868
rtoes -2.70187
lfemur -12.0248 4.66866 -18.7847
ltibia 47.9245
lfoot -22.4366 -4.79163
ltoes -5.42654
243
root 9.63792 16.7541 -3.60751 187.518 80.508 -166.943
lowerback 36.3161 -3.73542 5.75716
upperback 17.7944 0.262962 4.22208
thorax 1.41167 1.46199 1.38663
lowerneck -8.89152 -9.35073 -3.16508
upperneck -16.4013 -10.8752 10.9936
head -3.00461 -5.35728 4.14478
rclavicle 3.18055e-015 5.40694e-014
rhumerus -11.2054 37.4005 -73.0988
rradius 34.8052
rwrist -6.15005
rhand -19.2744 2.50594
rfingers 7.12502
rthumb 7.0403 -27.357
lclavicle 3.18055e-015 5.40694e-014
lhumerus -1.40405 -25.8201 82.7941
lradius 40.7419
lwrist 19.565
lhand -12.6153 -10.0919
lfingers 7.12502
lthumb 13.464 19.4529
rfemur -24.5144 -1.51116 23.1815
rtibia 50.5064
rfoot -12.954 -6.62525
rtoes -2.52049
lfemur -11.1768 4.59355 -18.7218
ltibia 46.3987
lfoot -21.949 -4.80072
ltoes -5.6211
244
root 9.69743 16.8179 -3.59462 187.516 80.3892 -167.081
lowerback 35.3575 -3.66016 5.7254
upperback 17.6584 0.178295 4.1795
thorax 1.57648 1.394 1.37352
lowerneck -8.82291 -9.33342 -3.12085
upperneck -16.0513 -10.9066 10.8211
head -2.9034 -5.37364 4.06013
rclavicle -9.54166e-015 -3.57812e-014
rhumerus -12.2838 37.1986 -74.021
rradius 34.7183
rwrist -6.34723
rhand -19.1389 2.46305
rfingers 7.12502
rthumb 7.17105 -27.3955
lclavicle -9.54166e-015 -3.57812e-014
lhumerus -1.65036 -25.9008 82.9127
lradius 40.5094
lwrist 19.6236
lhand -12.5996 -10.1101
lfingers 7.12502
lthumb 13.4792 19.4337
rfemur -23.8673 -1.53567 23.25
rtibia 49.5044
rfoot -12.7972 -6.68285
rtoes -2.45127
lfemur -10.3736 4.54664 -18.6191
ltibia 44.9092
lfoot -21.458 -4.78041
ltoes -6.02454
245
root 9.75851 16.8782 -3.58122 187.512 80.2604 -167.217
lowerback 34.3997 -3.59151 5.6755
upperback 17.5176 0.0822458 4.13388
thorax 1.74507 1.31894 1.36915
lowerneck -8.72848 -9.30195 -3.12635
upperneck -15.6685 -10.9132 10.7152
head -2.79091 -5.37755 4.00812
rclavicle -2.94201e-014 1.90833e-014
rhumerus -13.3614 36.9116 -74.953
rradius 34.6272
rwrist -6.39744
rhand -19.0231 2.44296
rfingers 7.12502
rthumb 7.28285 -27.4117
lclavicle -2.94201e-014 1.90833e-014
lhumerus -1.93347 -25.9166 83.0476
lradius 40.2941
lwrist 19.6383
lhand -12.5676 -10.0527
lfingers 7.12502
lthumb 13.51 19.489
rfemur -23.2348 -1.51627 23.3164
rtibia 48.5437
rfoot -12.6603 -6.7902
rtoes -2.38017
lfemur -9.56794 4.50937 -18.5139
ltibia 43.4449
lfoot -20.9753 -4.77159
ltoes -6.52176
246
root 9.82019 16.9348 -3.56719 187.702 80.1329 -167.154
lowerback 33.4987 -3.52953 5.67953
upperback 17.3458 0.00106599 4.08878
thorax 1.87058 1.25326 1.33186
lowerneck -8.71017 -9.28857 -3.15498
upperneck -15.2224 -10.9456 10.6102
head -2.64075 -5.39053 3.95186
rclavicle -6.36111e-015 -1.03368e-014
rhumerus -14.4621 36.5568 -75.8697
rradius 34.5534
rwrist -6.45498
rhand -18.8775 2.41308
rfingers 7.12502
rthumb 7.42341 -27.4367
lclavicle -6.36111e-015 -1.03368e-014
lhumerus -2.23755 -26.0079 83.1677
lradius 40.0889
lwrist 19.6838
lhand -12.5124 -9.94323
lfingers 7.12502
lthumb 13.5632 19.595
rfemur -22.6095 -1.50018 23.4332
rtibia 47.6158
rfoot -12.5471 -6.89851
rtoes -2.32705
lfemur -8.78476 4.44613 -18.3663
ltibia 42.034
lfoot -20.5504 -4.78065
ltoes -7.07102
247
root 9.88252 16.9872 -3.55362 187.776 80.0156 -167.208
lowerback 32.6175 -3.44551 5.6676
upperback 17.1747 -0.0513996 4.05573
thorax 1.99808 1.20082 1.30711
lowerneck -8.76492 -9.29319 -3.19843
upperneck -14.762 -10.9992 10.5033
head -2.472 -5.41069 3.89228
rclavicle 7.95139e-016 -3.02153e-014
rhumerus -15.5179 36.1585 -76.6972
rradius 34.484
rwrist -6.5553
rhand -18.7369 2.36912
rfingers 7.12502
rthumb 7.55915 -27.4758
lclavicle 7.95139e-016 -3.02153e-014
lhumerus -2.49716 -26.205 83.2892
lradius 39.8648
lwrist 19.7742
lhand -12.5287 -9.88528
lfingers 7.12502
lthumb 13.5475 19.654
rfemur -22.0177 -1.47564 23.5231
rtibia 46.7293
rfoot -12.4219 -7.00484
rtoes -2.19854
lfemur -8.02252 4.41047 -18.2489
ltibia 40.6622
lfoot -20.1356 -4.75574
ltoes -7.62794
